<svg version="1.0" xmlns="http://www.w3.org/2000/svg"
 width="991.000000pt" height="999.000000pt" viewBox="0 0 991.000000 999.000000"
 preserveAspectRatio="xMidYMid meet">

  <g transform="translate(0.000000,999.000000) scale(0.100000,-0.100000)"
  fill="#000000" stroke="none">
    <path d="M4952 9970 c-40 -11 -96 -32 -125 -47 -65 -36 -157 -120 -195 -181
    -84 -130 -107 -323 -57 -480 28 -88 103 -204 160 -248 l35 -26 0 -217 c0 -119
    9 -378 20 -576 11 -198 20 -422 20 -497 l0 -138 -28 0 c-15 0 -95 -11 -178
    -25 -267 -43 -536 -121 -781 -225 -87 -37 -119 -46 -125 -37 -25 39 -187 467
    -278 735 l-107 314 34 66 c46 91 66 195 60 304 -16 255 -135 467 -315 555 -73
    37 -80 38 -176 37 -82 -1 -114 -5 -168 -26 -238 -89 -378 -278 -378 -508 0
    -195 98 -381 255 -482 32 -21 80 -46 105 -55 l46 -16 33 -96 c57 -162 142
    -371 293 -721 80 -184 148 -344 152 -356 5 -17 -11 -33 -101 -101 -213 -160
    -406 -352 -561 -559 l-63 -84 -67 47 c-211 149 -323 233 -553 415 l-256 203
    -5 76 c-19 252 -272 521 -542 576 -148 29 -271 -11 -386 -126 -109 -110 -170
    -253 -170 -401 0 -251 194 -480 455 -535 82 -17 139 -18 215 -2 l55 12 95 -74
    c134 -104 280 -207 614 -431 228 -153 291 -199 289 -215 0 -11 -20 -72 -43
    -135 -70 -194 -125 -439 -145 -652 l-7 -68 -166 0 c-92 0 -248 5 -347 10 -99
    5 -247 12 -330 16 l-149 7 -71 72 c-120 122 -269 183 -465 192 -131 6 -215 -9
    -307 -54 -163 -80 -253 -249 -240 -453 18 -283 221 -491 502 -516 153 -14 317
    43 432 150 l61 57 474 5 c260 4 506 7 547 8 l74 1 18 -107 c33 -194 86 -371
    165 -552 33 -75 41 -102 31 -108 -28 -18 -302 -118 -571 -209 l-289 -97 -51
    28 c-87 49 -158 64 -286 63 -196 -1 -368 -65 -490 -183 -89 -85 -124 -166
    -128 -291 -3 -82 0 -106 23 -175 64 -193 213 -333 396 -374 79 -18 229 -9 303
    18 158 57 283 175 342 322 l23 55 143 51 c174 62 285 108 621 254 l258 113 51
    -59 c174 -201 439 -418 692 -566 l47 -28 -78 -97 c-116 -147 -246 -302 -389
    -463 -71 -80 -145 -164 -164 -186 -34 -40 -36 -41 -115 -47 -155 -10 -283 -75
    -420 -212 -213 -212 -253 -450 -111 -649 130 -182 361 -271 575 -221 263 62
    462 349 424 612 l-11 75 97 113 c107 125 213 261 480 622 l180 242 73 -25
    c249 -85 601 -154 880 -170 l111 -7 -6 -286 c-3 -157 -15 -389 -26 -516 -12
    -126 -21 -253 -21 -280 0 -45 -3 -53 -27 -67 -83 -50 -176 -180 -217 -307
    -111 -336 -4 -642 257 -730 92 -31 276 -30 370 3 222 79 356 275 357 521 0
    144 -56 286 -152 388 l-50 52 7 80 c4 44 10 323 14 620 l6 539 125 17 c227 32
    510 102 679 169 l49 19 124 -142 c160 -182 284 -334 427 -522 63 -82 132 -172
    154 -198 l39 -48 -10 -72 c-25 -164 35 -354 162 -514 140 -175 331 -255 502
    -209 279 74 461 384 389 660 -62 238 -292 425 -525 426 l-55 1 -62 82 c-87
    115 -195 239 -417 482 -106 116 -208 228 -227 249 l-34 39 25 16 c206 134 462
    374 600 563 47 64 88 117 92 117 15 2 378 -159 598 -264 129 -61 243 -115 252
    -118 10 -4 23 -30 34 -67 47 -167 223 -336 427 -412 106 -40 252 -50 342 -23
    158 46 280 190 320 381 19 87 18 141 0 229 -40 189 -174 334 -370 401 -137 46
    -321 34 -435 -30 -22 -13 -29 -12 -70 9 -102 52 -361 158 -605 250 -143 53
    -262 99 -264 101 -2 2 12 57 32 121 62 202 90 352 110 597 l12 141 487 -2 486
    -2 70 -70 c122 -122 288 -185 487 -184 174 0 291 40 390 134 120 114 164 294
    115 483 -25 100 -61 165 -132 242 -99 106 -240 164 -398 164 -154 0 -293 -56
    -399 -161 l-60 -60 -278 -4 c-153 -2 -384 -11 -513 -19 -129 -9 -245 -16 -256
    -16 -19 0 -23 8 -28 58 -23 190 -102 503 -175 687 -21 55 -36 103 -32 107 14
    15 351 141 621 232 l284 97 61 -30 c86 -44 165 -61 278 -61 128 0 220 21 337
    77 74 36 109 60 161 112 89 90 121 158 127 271 12 245 -143 472 -376 551 -134
    46 -318 25 -447 -50 -109 -63 -215 -186 -250 -291 -16 -45 -16 -45 -103 -73
    -133 -44 -382 -144 -673 -272 -144 -63 -266 -115 -269 -115 -4 0 -40 44 -81
    98 -40 53 -139 163 -219 243 -123 123 -198 186 -379 317 l-24 18 123 204 c67
    113 199 318 292 456 l169 251 67 11 c40 7 101 28 152 53 69 34 102 59 175 133
    150 152 209 279 209 451 1 141 -22 195 -123 295 -121 120 -239 170 -403 170
    -48 0 -108 -7 -139 -16 -183 -54 -328 -205 -384 -398 -23 -79 -23 -213 0 -292
    l17 -62 -59 -88 c-91 -135 -166 -263 -351 -596 -93 -167 -174 -313 -180 -324
    -11 -21 -13 -20 -124 18 -214 74 -481 130 -685 144 -73 6 -94 10 -97 23 -3 9
    -10 158 -17 331 -8 241 -8 394 1 655 l12 340 53 50 c71 67 126 155 160 256 37
    110 47 307 21 409 -71 279 -314 416 -604 340z m213 -151 c77 -14 126 -40 164
    -86 46 -56 72 -135 78 -234 13 -202 -79 -401 -212 -460 l-44 -19 -3 -228 c-6
    -458 -1 -982 11 -1172 7 -107 14 -196 16 -198 1 -1 67 -7 146 -12 316 -21 566
    -76 842 -184 65 -25 120 -46 122 -46 6 0 106 172 265 460 198 355 264 466 372
    626 l88 131 -26 59 c-87 197 -1 431 196 531 48 24 66 28 150 28 86 0 101 -3
    162 -32 76 -36 151 -101 178 -153 63 -124 7 -305 -139 -450 -104 -103 -168
    -134 -285 -139 -87 -3 -88 -4 -105 -34 -9 -16 -89 -139 -177 -271 -234 -350
    -525 -828 -512 -841 3 -3 51 -34 108 -71 269 -170 500 -394 677 -655 l65 -96
    141 59 c78 33 232 100 342 148 260 114 459 193 619 245 l129 42 26 80 c43 131
    106 204 227 260 53 25 70 28 164 28 101 0 108 -1 168 -34 174 -95 261 -323
    178 -466 -120 -204 -521 -275 -684 -120 l-46 42 -51 -22 c-28 -13 -174 -64
    -324 -115 -422 -141 -806 -293 -797 -314 2 -6 27 -60 54 -121 119 -263 204
    -594 228 -889 l7 -86 30 0 c17 0 193 9 390 21 244 14 443 19 622 17 l263 -3
    26 41 c168 265 567 253 693 -22 65 -142 46 -311 -44 -396 -15 -15 -55 -39 -88
    -54 -49 -23 -78 -28 -160 -32 -206 -9 -381 69 -450 200 l-28 53 -151 1 c-83 0
    -340 2 -571 4 -231 2 -443 0 -471 -4 l-51 -7 -6 -164 c-13 -327 -80 -651 -183
    -882 -13 -31 -23 -58 -21 -60 2 -2 153 -59 335 -128 365 -137 538 -208 700
    -288 l107 -53 55 33 c123 75 268 84 392 25 82 -40 153 -108 187 -182 23 -48
    26 -68 26 -160 0 -97 -2 -110 -32 -172 -61 -130 -151 -185 -282 -176 -125 10
    -251 71 -352 171 -70 69 -110 147 -118 229 l-6 60 -120 53 c-66 28 -187 84
    -269 124 -246 119 -671 301 -700 301 -6 0 -40 -45 -74 -100 -173 -272 -426
    -514 -725 -693 l-107 -64 91 -104 c51 -57 181 -201 289 -319 247 -269 347
    -385 452 -525 l83 -110 100 -1 c140 0 196 -23 291 -118 92 -92 118 -153 119
    -276 0 -76 -3 -92 -32 -150 -18 -36 -55 -88 -83 -117 -151 -149 -316 -141
    -471 25 -138 146 -193 342 -136 482 l23 55 -56 65 c-30 36 -119 149 -197 251
    -254 332 -621 755 -652 753 -9 -1 -64 -20 -123 -43 -138 -53 -320 -105 -473
    -136 -136 -27 -345 -55 -411 -55 l-44 0 -2 -92 c-1 -51 -3 -313 -3 -583 -1
    -433 -12 -713 -31 -776 -3 -11 13 -31 48 -59 114 -91 163 -189 163 -330 0
    -223 -155 -381 -375 -383 -147 0 -229 43 -281 149 -31 62 -34 78 -37 174 -8
    216 83 403 224 461 l54 23 0 75 c0 42 9 182 20 311 24 287 40 629 40 853 l0
    167 -103 0 c-316 0 -719 72 -1048 186 l-133 46 -24 -28 c-13 -16 -103 -135
    -199 -264 -97 -129 -221 -294 -275 -366 -88 -118 -238 -301 -348 -425 l-41
    -47 15 -53 c70 -233 -77 -477 -312 -520 -148 -28 -335 69 -403 208 -57 115
    -10 265 124 397 125 125 274 183 390 154 l56 -15 29 41 c17 23 71 88 122 146
    243 277 344 395 436 510 111 138 254 326 254 334 0 2 -55 35 -122 72 -314 171
    -587 393 -775 628 -31 39 -62 77 -68 84 -14 15 3 22 -405 -155 -330 -144 -518
    -218 -685 -273 -71 -24 -133 -48 -136 -53 -4 -5 -10 -28 -13 -50 -17 -105
    -116 -225 -230 -278 -245 -115 -517 47 -543 322 -14 152 106 280 312 334 77
    20 217 19 285 -1 58 -17 133 -63 149 -91 8 -15 19 -12 112 24 57 22 190 69
    294 103 265 88 715 257 737 278 4 4 -26 72 -66 152 -136 272 -188 457 -232
    825 l-4 40 -263 -8 c-385 -11 -837 -13 -959 -4 -103 8 -106 8 -113 -13 -12
    -38 -118 -135 -180 -166 -56 -27 -68 -29 -175 -29 -106 0 -120 2 -172 28 -186
    91 -268 336 -175 517 61 118 237 174 428 136 156 -32 266 -102 315 -201 l26
    -55 92 0 c50 0 199 -7 331 -15 132 -8 375 -15 541 -15 l301 0 6 121 c16 298
    87 600 203 862 l43 98 -72 53 c-40 29 -208 144 -375 255 -338 226 -490 335
    -635 453 l-98 79 -65 -21 c-93 -31 -215 -25 -296 14 -257 123 -312 431 -113
    631 69 69 122 89 213 83 100 -7 187 -53 283 -148 123 -122 178 -261 151 -378
    l-10 -43 56 -38 c32 -21 129 -97 218 -168 283 -228 509 -396 755 -561 l76 -51
    62 95 c124 190 312 400 495 554 83 70 295 225 318 232 15 5 -44 158 -214 548
    -158 361 -210 491 -277 689 l-56 164 -55 14 c-159 40 -266 146 -306 303 -45
    178 41 353 214 436 81 39 202 46 266 15 127 -62 218 -247 217 -446 0 -112 -25
    -189 -84 -252 l-39 -43 22 -52 c13 -29 65 -177 116 -329 121 -360 333 -902
    364 -933 5 -5 54 13 117 44 350 170 725 276 1111 312 118 11 123 13 129 37 8
    34 -4 432 -23 736 -9 138 -17 396 -18 574 l-1 325 -25 15 c-139 87 -209 225
    -197 387 15 197 165 337 378 353 8 0 42 -4 74 -10z"/>
    <path d="M4285 7021 c-57 -16 -84 -30 -123 -66 -113 -102 -108 -301 10 -400
    54 -46 95 -58 173 -52 270 21 393 241 234 421 -70 79 -201 122 -294 97z m142
    -181 c44 -26 68 -75 54 -107 -21 -46 -153 -87 -195 -60 -53 35 -59 128 -9 167
    34 27 107 27 150 0z"/>
    <path d="M5584 6600 c-156 -32 -286 -185 -286 -336 0 -129 75 -222 215 -265
    179 -56 350 14 419 169 31 69 31 189 -1 260 -55 123 -211 200 -347 172z m143
    -180 c46 -28 65 -63 65 -118 0 -56 -20 -101 -58 -131 -86 -67 -274 -7 -274 88
    0 127 163 225 267 161z"/>
    <path d="M3371 6268 c-118 -20 -187 -155 -148 -289 20 -68 66 -137 111 -167
    32 -22 39 -23 88 -13 168 36 281 209 224 344 -15 36 -75 93 -115 109 -45 17
    -114 24 -160 16z m110 -177 l24 -20 -20 -38 c-24 -44 -68 -74 -86 -56 -13 13
    -24 95 -16 118 9 22 70 19 98 -4z"/>
    <path d="M4075 6202 c-115 -40 -197 -111 -240 -206 -112 -247 81 -473 365
    -427 138 23 247 105 291 220 61 161 -26 363 -178 415 -61 21 -175 20 -238 -2z
    m195 -160 c40 -19 80 -88 80 -137 -1 -50 -35 -111 -80 -141 -32 -21 -56 -28
    -114 -32 -128 -8 -186 31 -186 126 0 136 178 245 300 184z"/>
    <path d="M6210 5641 c-130 -40 -221 -161 -222 -294 0 -102 41 -174 127 -220
    34 -19 56 -22 150 -22 100 0 115 2 161 27 53 28 102 76 131 131 27 49 24 179
    -4 233 -61 114 -221 182 -343 145z m133 -165 c69 -29 94 -95 57 -154 -36 -57
    -130 -79 -205 -48 -74 31 -51 156 37 199 41 20 69 21 111 3z"/>
    <path d="M6910 5588 c-124 -63 -116 -231 17 -347 58 -52 79 -57 141 -37 95 32
    182 138 182 224 0 73 -60 147 -139 171 -64 19 -151 14 -201 -11z m171 -155
    c12 -12 -27 -63 -47 -63 -17 0 -56 59 -47 73 7 11 81 3 94 -10z"/>
    <path d="M4188 5507 c-139 -65 -154 -241 -31 -360 89 -87 217 -79 303 19 44
    50 60 93 60 156 0 70 -31 123 -93 162 -42 25 -60 30 -130 33 -51 1 -92 -2
    -109 -10z m147 -159 c30 -14 32 -37 4 -72 -25 -32 -45 -33 -76 -4 -22 20 -31
    67 -16 81 10 11 60 8 88 -5z"/>
    <path d="M5145 5337 c-117 -39 -199 -110 -248 -215 -27 -57 -32 -78 -32 -147
    0 -68 4 -89 28 -137 65 -132 214 -207 394 -196 129 7 215 67 272 188 35 75 36
    215 2 302 -30 77 -105 159 -173 188 -65 28 -184 36 -243 17z m156 -158 c75
    -26 123 -104 122 -200 -1 -68 -24 -121 -67 -152 -25 -18 -44 -22 -106 -22 -90
    0 -161 31 -197 85 -27 39 -31 112 -9 164 20 48 83 104 135 121 58 17 79 18
    122 4z"/>
    <path d="M3513 5136 c-61 -20 -138 -72 -173 -116 -57 -72 -84 -146 -84 -235
    -1 -68 3 -88 28 -138 55 -114 165 -172 321 -172 77 1 98 5 147 29 238 114 247
    485 16 611 -43 24 -67 29 -133 32 -49 2 -96 -3 -122 -11z m192 -172 c92 -60
    83 -251 -15 -308 -72 -43 -221 -11 -255 55 -19 35 -19 110 -1 152 18 42 62 85
    111 109 47 22 120 19 160 -8z"/>
    <path d="M7192 4523 c-107 -52 -130 -203 -52 -340 42 -72 89 -107 137 -100
    128 21 245 197 213 319 -15 53 -74 113 -127 127 -55 16 -133 13 -171 -6z m122
    -149 c9 -3 16 -17 16 -30 0 -26 -44 -83 -56 -72 -4 4 -9 30 -12 58 -4 45 -3
    50 16 50 11 0 27 -3 36 -6z"/>
    <path d="M5072 4513 c-61 -21 -145 -102 -172 -164 -52 -122 -33 -237 53 -324
    58 -58 115 -82 213 -92 92 -9 165 17 230 82 62 61 84 120 84 220 0 171 -129
    296 -303 294 -34 0 -81 -7 -105 -16z m165 -158 c21 -9 46 -27 57 -42 42 -57
    27 -163 -30 -199 -37 -25 -121 -23 -166 2 -18 11 -41 36 -51 56 -15 31 -16 43
    -7 80 14 50 42 85 85 104 40 18 67 17 112 -1z"/>
    <path d="M4055 4488 c-39 -14 -99 -58 -125 -91 -44 -55 -64 -118 -64 -197 1
    -89 18 -133 75 -195 58 -63 124 -89 229 -89 76 -1 91 2 139 29 201 111 180
    430 -34 531 -55 26 -163 32 -220 12z m191 -190 c41 -45 51 -100 29 -155 -19
    -48 -53 -68 -110 -66 -94 3 -140 52 -133 140 4 50 9 60 43 91 34 32 41 34 88
    29 42 -4 56 -10 83 -39z"/>
    <path d="M2773 4450 c-183 -37 -229 -226 -86 -361 42 -40 100 -73 150 -83 61
    -14 148 69 179 170 52 174 -68 309 -243 274z m89 -177 c5 -22 -8 -73 -22 -87
    -14 -14 -70 42 -70 70 0 25 11 32 57 33 22 1 33 -4 35 -16z"/>
    <path d="M6453 4364 c-58 -21 -126 -85 -153 -141 -83 -176 56 -365 270 -367
    83 0 143 28 203 94 49 54 67 103 67 179 0 95 -49 169 -145 219 -63 32 -178 40
    -242 16z m149 -154 c80 -23 102 -98 44 -156 -51 -51 -122 -47 -183 9 -44 40
    -22 115 41 143 38 16 51 17 98 4z"/>
    <path d="M5770 3711 c-79 -25 -163 -90 -195 -152 -26 -49 -30 -120 -10 -180
    24 -71 113 -160 210 -209 59 -30 79 -35 139 -35 56 0 82 6 119 25 141 71 202
    258 131 397 -33 65 -102 124 -173 148 -47 16 -177 19 -221 6z m187 -172 c70
    -34 92 -102 57 -176 -42 -87 -127 -87 -238 0 -49 39 -71 88 -55 120 39 71 150
    98 236 56z"/>
    <path d="M3539 3555 c-67 -21 -130 -82 -164 -156 -24 -54 -27 -71 -23 -134 8
    -120 72 -211 199 -279 63 -35 172 -46 235 -26 58 19 130 92 154 156 32 86 28
    185 -10 262 -17 33 -49 77 -72 97 -87 79 -219 112 -319 80z m167 -171 c99 -47
    126 -192 46 -254 -36 -29 -80 -25 -142 13 -68 40 -103 95 -96 150 12 100 92
    138 192 91z"/>
  </g>
</svg>